<svg width="2224" height="2225" xmlns="http://www.w3.org/2000/svg" xmlns:xlink="http://www.w3.org/1999/xlink" xml:space="preserve" overflow="hidden"><defs><clipPath id="clip0"><rect x="1088" y="125" width="2224" height="2225"/></clipPath></defs><g clip-path="url(#clip0)" transform="translate(-1088 -125)"><path d="M1088 1237.5C1088 623.083 1585.86 125 2200 125 2814.14 125 3312 623.083 3312 1237.5 3312 1851.92 2814.14 2350 2200 2350 1585.86 2350 1088 1851.92 1088 1237.5Z" fill="#FFFFFF" fill-rule="evenodd"/><rect x="1492" y="1002" width="472" height="471" fill="#90E979"/><path d="M1492 766C1492 635.661 1597.66 530 1728 530 1858.34 530 1964 635.661 1964 766 1964 896.339 1858.34 1002 1728 1002 1597.66 1002 1492 896.339 1492 766Z" fill="#020305" fill-rule="evenodd"/><rect x="1964" y="1002" width="472" height="471" fill="#62DB3D"/><rect x="1964" y="530" width="472" height="472" fill="#080D15"/><rect x="2436" y="1002" width="472" height="471" fill="#18556D"/><rect x="2436" y="1473" width="472" height="472" fill="#4273B5"/><path d="M1492 1709C1492 1578.66 1597.66 1473 1728 1473 1858.34 1473 1964 1578.66 1964 1709 1964 1839.34 1858.34 1945 1728 1945 1597.66 1945 1492 1839.34 1492 1709Z" fill="#C22FF1" fill-rule="evenodd"/><path d="M1964 1709C1964 1578.66 2069.66 1473 2200 1473 2330.34 1473 2436 1578.66 2436 1709 2436 1839.34 2330.34 1945 2200 1945 2069.66 1945 1964 1839.34 1964 1709Z" fill="#201131" fill-rule="evenodd"/><path d="M2436 766C2436 635.661 2541.66 530 2672 530 2802.34 530 2908 635.661 2908 766 2908 896.339 2802.34 1002 2672 1002 2541.66 1002 2436 896.339 2436 766Z" fill="#223759" fill-rule="evenodd"/></g></svg>