<svg width="2216" height="1255" xmlns="http://www.w3.org/2000/svg" xmlns:xlink="http://www.w3.org/1999/xlink" xml:space="preserve" overflow="hidden"><defs><clipPath id="clip0"><rect x="853" y="739" width="2216" height="1255"/></clipPath><clipPath id="clip1"><rect x="1556" y="1012" width="718" height="719"/></clipPath><clipPath id="clip2"><rect x="1556" y="1012" width="718" height="719"/></clipPath><clipPath id="clip3"><rect x="1556" y="1012" width="718" height="719"/></clipPath><clipPath id="clip4"><rect x="2273" y="1012" width="718" height="719"/></clipPath><clipPath id="clip5"><rect x="2273" y="1012" width="718" height="719"/></clipPath><clipPath id="clip6"><rect x="2273" y="1012" width="718" height="719"/></clipPath><clipPath id="clip7"><rect x="911" y="1051" width="679" height="680"/></clipPath><clipPath id="clip8"><rect x="911" y="1051" width="679" height="680"/></clipPath><clipPath id="clip9"><rect x="911" y="1051" width="679" height="680"/></clipPath><clipPath id="clip10"><rect x="1354" y="830" width="324" height="324"/></clipPath><clipPath id="clip11"><rect x="1354" y="830" width="324" height="324"/></clipPath><clipPath id="clip12"><rect x="1354" y="830" width="324" height="324"/></clipPath><clipPath id="clip13"><rect x="2133" y="1588" width="324" height="324"/></clipPath><clipPath id="clip14"><rect x="2133" y="1588" width="324" height="324"/></clipPath><clipPath id="clip15"><rect x="2133" y="1588" width="324" height="324"/></clipPath><clipPath id="clip16"><path d="M1114.91 739.53 1372.78 933.871 1178.44 1191.74 920.569 997.403Z" fill-rule="evenodd" clip-rule="evenodd"/></clipPath><clipPath id="clip17"><path d="M1114.91 739.53 1372.78 933.871 1178.44 1191.74 920.569 997.403Z" fill-rule="evenodd" clip-rule="evenodd"/></clipPath><clipPath id="clip18"><path d="M1114.91 739.53 1372.78 933.871 1178.44 1191.74 920.569 997.403Z" fill-rule="evenodd" clip-rule="evenodd"/></clipPath><clipPath id="clip19"><rect x="2231" y="890" width="325" height="325"/></clipPath><clipPath id="clip20"><rect x="2231" y="890" width="325" height="325"/></clipPath><clipPath id="clip21"><rect x="2231" y="890" width="325" height="325"/></clipPath><clipPath id="clip22"><rect x="1387" y="1500" width="353" height="352"/></clipPath><clipPath id="clip23"><rect x="1387" y="1500" width="353" height="352"/></clipPath><clipPath id="clip24"><rect x="1387" y="1500" width="353" height="352"/></clipPath><clipPath id="clip25"><rect x="2618" y="1523" width="362" height="363"/></clipPath><clipPath id="clip26"><rect x="2618" y="1523" width="362" height="363"/></clipPath><clipPath id="clip27"><rect x="2618" y="1523" width="362" height="363"/></clipPath></defs><g clip-path="url(#clip0)" transform="translate(-853 -739)"><rect x="853" y="748" width="2216" height="1246"/><g clip-path="url(#clip1)"><g clip-path="url(#clip2)"><g clip-path="url(#clip3)"><path d="M204.181 269.25C187.727 269.25 173.517 290.939 173.517 317.864 173.517 344.789 186.979 366.479 204.181 366.479 221.383 366.479 234.846 344.789 234.846 317.864 234.846 290.939 220.635 269.25 204.181 269.25Z" fill="#00FF00" transform="matrix(1 0 0 1 1556 1012)"/><path d="M630.494 551.962C609.552 502.6 602.073 445.01 602.073 315.621 602.073 213.904 548.971 134.625 480.91 134.625L204.181 134.625C135.373 134.625 82.2708 213.904 82.2708 315.621 82.2708 417.337 135.373 496.617 203.433 496.617L290.192 496.617C294.679 522.046 301.41 545.979 311.133 569.912L317.117 583.375 643.208 583.375 630.494 551.962ZM127.146 315.621C127.146 241.577 162.298 179.5 204.181 179.5 246.065 179.5 280.469 241.577 280.469 315.621 280.469 389.664 245.317 451.742 204.181 451.742 163.046 451.742 127.146 389.664 127.146 315.621ZM347.781 538.5C330.579 491.381 325.344 433.044 325.344 315.621 325.344 261.023 309.637 212.408 284.956 179.5L480.91 179.5C522.046 179.5 557.198 241.577 557.198 315.621 557.198 427.06 562.433 489.137 577.391 538.5L347.781 538.5Z" fill="#00FF00" transform="matrix(1 0 0 1 1556 1012)"/><path d="M347.781 284.208 385.177 284.208 385.177 321.604 347.781 321.604Z" fill="#00FF00" transform="matrix(1 0 0 1 1556 1012)"/><path d="M422.573 284.208 459.969 284.208 459.969 321.604 422.573 321.604Z" fill="#00FF00" transform="matrix(1 0 0 1 1556 1012)"/><path d="M497.364 284.208 534.76 284.208 534.76 321.604 497.364 321.604Z" fill="#00FF00" transform="matrix(1 0 0 1 1556 1012)"/></g></g></g><g clip-path="url(#clip4)"><g clip-path="url(#clip5)"><g clip-path="url(#clip6)"><path d="M567.625 351.031C542.978 351.031 522.813 330.866 522.813 306.219 522.813 281.572 542.978 261.406 567.625 261.406 592.272 261.406 612.438 281.572 612.438 306.219 612.438 330.866 592.272 351.031 567.625 351.031ZM393.603 191.2C370.45 182.238 359.994 156.097 368.956 132.944 377.919 109.791 404.059 99.3344 427.213 108.297 450.366 117.259 460.822 143.4 451.859 166.553 442.897 188.959 416.756 200.163 393.603 191.2ZM373.438 365.969C360.741 365.969 351.031 356.259 351.031 343.563 351.031 330.866 360.741 321.156 373.438 321.156 386.134 321.156 395.844 330.866 395.844 343.563 395.844 356.259 386.134 365.969 373.438 365.969ZM567.625 216.594C548.206 216.594 530.281 222.569 515.344 233.025L442.897 273.356 483.228 200.909C486.962 194.934 490.697 188.959 493.684 182.238 512.356 136.678 489.95 84.3969 444.391 65.725 398.831 47.0531 346.55 69.4594 327.878 115.019 309.206 160.578 331.613 212.859 377.172 231.531 386.134 235.266 395.097 236.759 404.059 237.506L336.841 304.725 320.409 341.322 104.563 463.063 59.75 537.75 276.344 440.656 179.25 657.25 253.938 612.438 374.184 397.338 410.781 380.906 478 313.688C481.734 359.994 520.572 395.844 567.625 395.844 616.919 395.844 657.25 355.513 657.25 306.219 657.25 256.925 616.919 216.594 567.625 216.594Z" fill="#0000FF" transform="matrix(1 0 0 1.00139 2274 1012)"/></g></g></g><g clip-path="url(#clip7)"><g clip-path="url(#clip8)"><g clip-path="url(#clip9)"><path d="M206.67 160.495C214.707 144.887 249.045 116.785 285.586 116.92 317.488 117.033 377.265 124.625 408.354 144.887 439.443 165.149 458.243 188.569 455.122 212.581 452.635 231.65 439.845 246.481 401.178 254.829 363.844 261.982 325.462 261.654 288.256 253.862 259.116 248.522 239.814 243.021 225.004 231.714 205.342 216.699 194.452 184.218 206.67 160.495Z" fill="#FF0000" transform="matrix(1 0 0 1 912 1052)"/><path d="M146.017 341.415C139.604 310.192 170.997 272.725 264.667 275.847 358.337 278.969 408.099 278.969 433.27 278.969 464.493 278.969 525.506 283.912 534.871 318.243 544.236 352.574 486.345 388.254 452 394.497 417.655 400.74 289.64 419.47 242.809 410.105 195.977 400.74 156.081 390.351 146.017 341.415Z" fill="#FF0000" transform="matrix(1 0 0 1 912 1052)"/><path d="M95.6333 509.453C89.5666 476.754 129.371 451.993 208.633 442.663 312.671 430.417 442.006 426.37 465.002 428.333 487.997 430.297 574.393 437.67 582.162 482.581 589.93 527.491 538.946 547.273 480.01 558.333 421.073 569.393 259.18 563.63 244.779 562.401 230.379 561.172 107.703 574.478 95.6333 509.453Z" fill="#FF0000" transform="matrix(1 0 0 1 912 1052)"/></g></g></g><g clip-path="url(#clip10)"><g clip-path="url(#clip11)"><g clip-path="url(#clip12)"><path d="M1578.54 1077.54C1574.71 1084.98 1558.35 1098.36 1540.95 1098.3 1525.75 1098.25 1497.27 1094.63 1482.46 1084.98 1467.65 1075.32 1458.69 1064.17 1460.18 1052.73 1461.36 1043.64 1467.46 1036.58 1485.88 1032.6 1503.66 1029.19 1521.95 1029.35 1539.67 1033.06 1553.56 1035.6 1562.75 1038.22 1569.81 1043.61 1579.17 1050.76 1584.36 1066.24 1578.54 1077.54Z" fill="#FF0000"/><path d="M1607.44 991.349C1610.49 1006.22 1595.54 1024.07 1550.91 1022.59 1506.29 1021.1 1482.58 1021.1 1470.59 1021.1 1455.71 1021.1 1426.65 1018.74 1422.19 1002.39 1417.73 986.033 1445.3 969.035 1461.67 966.061 1478.03 963.087 1539.02 954.164 1561.33 958.625 1583.64 963.087 1602.64 968.036 1607.44 991.349Z" fill="#FF0000"/><path d="M1631.44 911.296C1634.33 926.874 1615.37 938.67 1577.61 943.115 1528.04 948.949 1466.43 950.877 1455.47 949.941 1444.52 949.006 1403.36 945.493 1399.66 924.098 1395.96 902.703 1420.25 893.278 1448.32 888.009 1476.4 882.74 1553.53 885.486 1560.39 886.071 1567.25 886.657 1625.69 880.318 1631.44 911.296Z" fill="#FF0000"/></g></g></g><g clip-path="url(#clip13)"><g clip-path="url(#clip14)"><g clip-path="url(#clip15)"><path d="M98.4577 76.4601C102.287 69.0244 118.645 55.6367 136.054 55.7006 151.251 55.7545 179.729 59.3714 194.54 69.0244 209.351 78.6774 218.307 89.8343 216.82 101.274 215.636 110.358 209.543 117.424 191.122 121.401 173.336 124.808 155.05 124.652 137.325 120.94 123.443 118.396 114.248 115.775 107.192 110.389 97.8252 103.235 92.637 87.7617 98.4577 76.4601Z" fill="#FF0000" transform="matrix(-1.83697e-16 -1 1 -1.83697e-16 2134 1911)"/><path d="M69.5627 162.651C66.5077 147.776 81.4632 129.927 126.088 131.414 170.712 132.901 194.419 132.901 206.41 132.901 221.285 132.901 250.352 135.256 254.813 151.611 259.275 167.967 231.695 184.964 215.333 187.939 198.971 190.913 137.985 199.836 115.674 195.374 93.3638 190.913 74.3572 185.964 69.5627 162.651Z" fill="#FF0000" transform="matrix(-1.83697e-16 -1 1 -1.83697e-16 2134 1911)"/><path d="M45.5598 242.704C42.6696 227.126 61.6324 215.33 99.3931 210.885 148.957 205.051 210.572 203.123 221.527 204.058 232.482 204.994 273.641 208.506 277.342 229.902 281.043 251.297 256.755 260.721 228.677 265.99 200.6 271.259 123.473 268.514 116.613 267.928 109.753 267.343 51.3099 273.682 45.5598 242.704Z" fill="#FF0000" transform="matrix(-1.83697e-16 -1 1 -1.83697e-16 2134 1911)"/></g></g></g><g clip-path="url(#clip16)"><g clip-path="url(#clip17)"><g clip-path="url(#clip18)"><path d="M1223.91 1019.63C1215.05 1012.95 1213.26 1000.23 1219.94 991.37 1226.62 982.505 1239.34 980.719 1248.21 987.399 1257.07 994.08 1258.86 1006.8 1252.18 1015.66 1245.5 1024.53 1232.78 1026.31 1223.91 1019.63ZM1204.65 914.981C1198.75 905.482 1202.07 893.246 1211.57 887.348 1221.07 881.451 1233.31 884.775 1239.21 894.274 1245.1 903.773 1241.78 916.009 1232.28 921.907 1222.98 927.536 1210.54 924.48 1204.65 914.981ZM1150.02 972.372C1145.46 968.93 1144.6 962.806 1148.04 958.24 1151.48 953.673 1157.6 952.813 1162.17 956.255 1166.74 959.696 1167.6 965.82 1164.16 970.386 1160.71 974.953 1154.59 975.813 1150.02 972.372ZM1260.35 971.282C1253.37 966.019 1245.3 963.309 1237.09 963.021L1200.11 957.89 1234.25 942.766C1237.21 941.629 1240.17 940.492 1243.07 938.884 1262.14 927.56 1268.25 902.683 1256.92 883.619 1245.6 864.555 1220.72 858.443 1201.66 869.768 1182.59 881.092 1176.48 905.969 1187.81 925.033 1190.02 928.805 1192.84 931.772 1195.86 934.469L1153.46 940.426 1137.63 949.134 1027 934.414 990.644 949.13 1094.86 972.916 1001.23 1024.5 1040.24 1028.63 1141.79 983.856 1159.41 987.866 1201.8 981.91C1190.59 999.576 1194.84 1023 1211.77 1035.75 1229.5 1049.11 1254.93 1045.54 1268.29 1027.81 1281.65 1010.08 1278.08 984.643 1260.35 971.282Z" fill="#0000FF"/></g></g></g><g clip-path="url(#clip19)"><g clip-path="url(#clip20)"><g clip-path="url(#clip21)"><path d="M2353.12 1122.15C2353.12 1129.55 2362.88 1135.94 2374.99 1135.94 2387.11 1135.94 2396.86 1129.89 2396.86 1122.15 2396.86 1114.41 2387.11 1108.35 2374.99 1108.35 2362.88 1108.35 2353.12 1114.74 2353.12 1122.15Z" fill="#00FF00"/><path d="M2480.31 930.366C2458.1 939.786 2432.19 943.151 2373.99 943.151 2328.23 943.151 2292.56 967.04 2292.56 997.657L2292.56 1122.15C2292.56 1153.1 2328.23 1176.99 2373.99 1176.99 2419.74 1176.99 2455.41 1153.1 2455.41 1122.48L2455.41 1083.45C2466.85 1081.44 2477.61 1078.41 2488.38 1074.03L2494.44 1071.34 2494.44 924.646 2480.31 930.366ZM2373.99 1156.8C2340.68 1156.8 2312.75 1140.99 2312.75 1122.15 2312.75 1103.31 2340.68 1087.83 2373.99 1087.83 2407.29 1087.83 2435.22 1103.64 2435.22 1122.15 2435.22 1140.65 2407.29 1156.8 2373.99 1156.8ZM2474.25 1057.55C2453.05 1065.29 2426.81 1067.64 2373.99 1067.64 2349.42 1067.64 2327.55 1074.71 2312.75 1085.81L2312.75 997.657C2312.75 979.152 2340.68 963.339 2373.99 963.339 2424.12 963.339 2452.04 960.983 2474.25 954.254L2474.25 1057.55Z" fill="#00FF00"/><path d="M2359.85 1057.55 2359.85 1040.72 2376.68 1040.72 2376.68 1057.55Z" fill="#00FF00"/><path d="M2359.85 1023.9 2359.85 1007.08 2376.68 1007.08 2376.68 1023.9Z" fill="#00FF00"/><path d="M2359.85 990.255 2359.85 973.432 2376.68 973.432 2376.68 990.255Z" fill="#00FF00"/></g></g></g><g clip-path="url(#clip22)"><g clip-path="url(#clip23)"><g clip-path="url(#clip24)"><path d="M277.875 171.844C265.809 171.844 255.937 161.972 255.937 149.906 255.937 137.841 265.809 127.969 277.875 127.969 289.941 127.969 299.812 137.841 299.812 149.906 299.812 161.972 289.941 171.844 277.875 171.844ZM192.684 93.6C181.35 89.2125 176.231 76.4156 180.619 65.0812 185.006 53.7469 197.803 48.6281 209.137 53.0156 220.472 57.4031 225.591 70.2 221.203 81.5344 216.816 92.5031 204.019 97.9875 192.684 93.6ZM182.812 179.156C176.597 179.156 171.844 174.403 171.844 168.187 171.844 161.972 176.597 157.219 182.812 157.219 189.028 157.219 193.781 161.972 193.781 168.187 193.781 174.403 189.028 179.156 182.812 179.156ZM277.875 106.031C268.369 106.031 259.594 108.956 252.281 114.075L216.816 133.819 236.559 98.3531C238.387 95.4281 240.216 92.5031 241.678 89.2125 250.819 66.9094 239.85 41.3156 217.547 32.175 195.244 23.0344 169.65 34.0031 160.509 56.3062 151.369 78.6094 162.337 104.203 184.641 113.344 189.028 115.172 193.416 115.903 197.803 116.269L164.897 149.175 156.853 167.091 51.1875 226.687 29.25 263.25 135.281 215.719 87.75 321.75 124.312 299.812 183.178 194.512 201.094 186.469 234 153.562C235.828 176.231 254.841 193.781 277.875 193.781 302.006 193.781 321.75 174.037 321.75 149.906 321.75 125.775 302.006 106.031 277.875 106.031Z" fill="#0000FF" transform="matrix(6.12323e-17 1 -1.00285 6.14068e-17 1740 1500)"/></g></g></g><g clip-path="url(#clip25)"><g clip-path="url(#clip26)"><g clip-path="url(#clip27)"><path d="M2877.06 1749.25C2885.35 1749.25 2892.52 1738.31 2892.52 1724.74 2892.52 1711.16 2885.73 1700.23 2877.06 1700.23 2868.38 1700.23 2861.6 1711.16 2861.6 1724.74 2861.6 1738.31 2868.76 1749.25 2877.06 1749.25Z" fill="#00FF00"/><path d="M2662.12 1606.71C2672.68 1631.6 2676.45 1660.64 2676.45 1725.87 2676.45 1777.15 2703.22 1817.13 2737.54 1817.13L2877.06 1817.13C2911.75 1817.13 2938.52 1777.15 2938.52 1725.87 2938.52 1674.59 2911.75 1634.62 2877.43 1634.62L2833.69 1634.62C2831.43 1621.8 2828.04 1609.73 2823.13 1597.66L2820.12 1590.88 2655.71 1590.88 2662.12 1606.71ZM2915.9 1725.87C2915.9 1763.2 2898.17 1794.5 2877.06 1794.5 2855.94 1794.5 2838.59 1763.2 2838.59 1725.87 2838.59 1688.54 2856.32 1657.24 2877.06 1657.24 2897.8 1657.24 2915.9 1688.54 2915.9 1725.87ZM2804.66 1613.5C2813.33 1637.26 2815.97 1666.67 2815.97 1725.87 2815.97 1753.4 2823.89 1777.91 2836.33 1794.5L2737.54 1794.5C2716.8 1794.5 2699.07 1763.2 2699.07 1725.87 2699.07 1669.69 2696.43 1638.39 2688.89 1613.5L2804.66 1613.5Z" fill="#00FF00"/><path d="M2804.66 1741.71 2785.8 1741.71 2785.8 1722.85 2804.66 1722.85Z" fill="#00FF00"/><path d="M2766.95 1741.71 2748.09 1741.71 2748.09 1722.85 2766.95 1722.85Z" fill="#00FF00"/><path d="M2729.24 1741.71 2710.39 1741.71 2710.39 1722.85 2729.24 1722.85Z" fill="#00FF00"/></g></g></g></g></svg>