<svg width="1380" height="1380" xmlns="http://www.w3.org/2000/svg" xmlns:xlink="http://www.w3.org/1999/xlink" xml:space="preserve" overflow="hidden"><defs><clipPath id="clip0"><rect x="1510" y="547" width="1380" height="1381"/></clipPath></defs><g clip-path="url(#clip0)" transform="translate(-1510 -547)"><rect x="1510" y="547" width="1380" height="1381" fill="#F2F2F2"/><path d="M2468 936C2468 1084.01 2348.01 1204 2200 1204 2051.99 1204 1932 1084.01 1932 936 1932 787.988 2051.99 668 2200 668 2348.01 668 2468 787.988 2468 936Z" fill="#BFBFBF" fill-rule="evenodd"/><path d="M2736 1807 2736 1539C2736 1498.8 2715.9 1458.6 2682.4 1431.8 2608.7 1371.5 2514.9 1331.3 2421.1 1304.5 2354.1 1284.4 2280.4 1271 2200 1271 2126.3 1271 2052.6 1284.4 1978.9 1304.5 1885.1 1331.3 1791.3 1378.2 1717.6 1431.8 1684.1 1458.6 1664 1498.8 1664 1539L1664 1807 2736 1807Z" fill="#BFBFBF" fill-rule="evenodd"/></g></svg>